<svg width="512" height="512" viewBox="0 0 512 512" fill="none" xmlns="http://www.w3.org/2000/svg">
  <rect width="512" height="512" fill="#eef6f3"/>
  <circle cx="256" cy="256" r="202" fill="#fbfdfc" stroke="#d9e4e0" stroke-width="4"/>
  <g transform="translate(88 88) scale(5.25)" color="#0f4f4b">
    <circle cx="32" cy="32" r="29" stroke="currentColor" stroke-width="1.2" opacity="0.1"/>
    <circle cx="32" cy="32" r="26" stroke="currentColor" stroke-width="1" stroke-dasharray="2 3" opacity="0.25"/>

    <path d="M16 22C20 12 28 12 32 32C36 52 44 52 48 42" stroke="currentColor" stroke-width="3" stroke-linecap="round" opacity="0.85"/>
    <path d="M16 42C20 52 28 52 32 32C36 12 44 12 48 22" stroke="currentColor" stroke-width="3" stroke-linecap="round" opacity="0.85"/>

    <line x1="24" y1="14" x2="24" y2="50" stroke="currentColor" stroke-width="1.5" stroke-linecap="round" opacity="0.3" stroke-dasharray="2 2"/>
    <line x1="40" y1="14" x2="40" y2="50" stroke="currentColor" stroke-width="1.5" stroke-linecap="round" opacity="0.3" stroke-dasharray="2 2"/>

    <path d="M24 14L40 50" stroke="currentColor" stroke-width="1" opacity="0.15"/>
    <path d="M24 50L40 14" stroke="currentColor" stroke-width="1" opacity="0.15"/>

    <circle cx="16" cy="22" r="3.5" fill="currentColor"/>
    <circle cx="16" cy="42" r="3.5" fill="currentColor"/>

    <circle cx="24" cy="14" r="4" fill="currentColor"/>
    <circle cx="24" cy="50" r="4" fill="currentColor"/>
    <circle cx="40" cy="14" r="4" fill="currentColor"/>
    <circle cx="40" cy="50" r="4" fill="currentColor"/>

    <circle cx="48" cy="22" r="3.5" fill="currentColor"/>
    <circle cx="48" cy="42" r="3.5" fill="currentColor"/>

    <circle cx="32" cy="32" r="5.5" fill="#a93162"/>
    <circle cx="32" cy="32" r="9" stroke="#a93162" stroke-width="1.2" opacity="0.4"/>

    <path d="M16 18 A 20 20 0 0 0 16 46" stroke="#a93162" stroke-width="1.8" stroke-linecap="round" opacity="0.8"/>
    <path d="M11 43L16 46L18 40" stroke="#a93162" stroke-width="1.8" stroke-linecap="round" stroke-linejoin="round" opacity="0.8"/>

    <path d="M48 46 A 20 20 0 0 0 48 18" stroke="currentColor" stroke-width="1.8" stroke-linecap="round" opacity="0.4"/>
    <path d="M53 21L48 18L46 24" stroke="currentColor" stroke-width="1.8" stroke-linecap="round" stroke-linejoin="round" opacity="0.4"/>
  </g>
</svg>
